{"title":"[youshikibi] Wizard Barristers - Benmashi Cecil - 03 (1280x720 h","uid":9532091,"size":371126541,"categoryP":"video","categoryS":"tv_shows","magnet":"?xt=urn:btih:a96dcc4fa9e39c08cf3267a95a101c910538fa13&amp;dn=%5Byoushikibi%5D+Wizard+Barristers+-+Benmashi+Cecil+-+03+%281280x720+h&amp;tr=udp%3A%2F%2Ftracker.openbittorrent.com%3A80&amp;tr=udp%3A%2F%2Fopen.demonii.com%3A1337&amp;tr=udp%3A%2F%2Ftracker.coppersurfer.tk%3A6969&amp;tr=udp%3A%2F%2Fexodus.desync.com%3A6969","seeders":1,"leechers":0,"uploader":"youshikibi","files":-1,"time":1390861367,"description":"Anime: Wizard Barristers: Benmashi Cecil\nEpisode: 03\n\n\nVIDEO\n=====\nID : 1\nFormat : MPEG-4 (playable on PS3, Xbox 360, etc.)\nFormat/Info : Advanced Video Codec\nFormat profile : &lt;a class=&quot;__cf_email__&quot; href=&quot;/cdn-cgi/l/email-protection&quot; data-cfemail=&quot;155d7c727d5559213b24&quot;&gt;[email&amp;#160;protected]&lt;/a&gt;&lt;script cf-hash='f9e31' type=&quot;text/javascript&quot;&gt;\n/* &lt;![CDATA[ */!function(){try{var t=&quot;currentScript&quot;in document?document.currentScript:function(){for(var t=document.getElementsByTagName(&quot;script&quot;),e=t.length;e--;)if(t[e].getAttribute(&quot;cf-hash&quot;))return t[e]}();if(t&amp;&amp;t.previousSibling){var e,r,n,i,c=t.previousSibling,a=c.getAttribute(&quot;data-cfemail&quot;);if(a){for(e=&quot;&quot;,r=parseInt(a.substr(0,2),16),n=2;a.length-n;n+=2)i=parseInt(a.substr(n,2),16)^r,e+=String.fromCharCode(i);e=document.createTextNode(e),c.parentNode.replaceChild(e,c)}}}catch(u){}}();/* ]]&gt; */&lt;/script&gt;\nFormat settings, CABAC : Yes\nFormat settings, ReFrames : 2 frames\nCodec ID : avc1\nCodec ID/Info : Advanced Video Coding\nDuration : 23mn 49s\nBit rate : 1 948 Kbps\nMaximum bit rate : 14.7 Mbps\nWidth : 1 280 pixels\nHeight : 720 pixels\nDisplay aspect ratio : 16:9\nFrame rate mode : Constant\nFrame rate : 23.976 fps\nColor space : YUV\nChroma subsampling : 4:2:0\nBit depth : 8 bits\nScan type : Progressive\nBits/(Pixel*Frame) : 0.092\nStream size : 332 MiB (94%)\n\n\nAUDIO\n=====\nID : 2\nFormat : AAC\nFormat/Info : Advanced Audio Codec\nFormat profile : LC\nCodec ID : 40\nDuration : 23mn 49s\nBit rate mode : Variable\nBit rate : 126 Kbps\nMaximum bit rate : 173 Kbps\nChannel count : 2 channels\nChannel positions : Front: L R\nSampling rate : 48.0 KHz\nCompression mode : Lossy\nDelay relative to video : 42ms\nStream size : 21.4 MiB (6%)\n\n\nSUBTITLES\n========\nEnglish subtitles from Doki fansubs\n\n\nscreenshots: &lt;a href=&quot;\nhttps://fapis.com/image?id=10581&quot; rel=&quot;nofollow&quot; target=&quot;_NEW&quot;&gt;\nhttps://fapis.com/image?id=10581&lt;/a&gt;","torrent":{"xt":"urn:btih:a96dcc4fa9e39c08cf3267a95a101c910538fa13","amp;dn":"%5Byoushikibi%5D+Wizard+Barristers+-+Benmashi+Cecil+-+03+%281280x720+h","amp;tr":["udp%3A%2F%2Ftracker.openbittorrent.com%3A80","udp%3A%2F%2Fopen.demonii.com%3A1337","udp%3A%2F%2Ftracker.coppersurfer.tk%3A6969","udp%3A%2F%2Fexodus.desync.com%3A6969"],"infoHash":"a96dcc4fa9e39c08cf3267a95a101c910538fa13","infoHashBuffer":{"type":"Buffer","data":[169,109,204,79,169,227,156,8,207,50,103,169,90,16,28,145,5,56,250,19]},"announce":[],"urlList":[]}}